<?xml version="1.0" encoding="utf-8"?>
<!-- Generator: Adobe Illustrator 26.2.1, SVG Export Plug-In . SVG Version: 6.00 Build 0)  -->
<svg version="1.1" id="Layer_1" xmlns="http://www.w3.org/2000/svg" xmlns:xlink="http://www.w3.org/1999/xlink" x="0px" y="0px"
	 viewBox="0 0 50 50" style="enable-background:new 0 0 50 50;" xml:space="preserve">
<style type="text/css">
	.st0{fill:#FFFFFF;}
	.st1{fill:#557EBF;}
	.st2{fill:#36A852;}
	.st3{fill:#F9BC15;}
	.st4{fill:#EA4535;}
</style>
<g>
	<circle class="st0" cx="25" cy="25" r="25"/>
</g>
<g transform="matrix(1, 0, 0, 1, 27.009001, -39.238998)">
	<path class="st1" d="M15.94,64.62c0-1.21-0.11-2.35-0.29-3.47H-1.6v6.88h9.88C7.84,70.3,6.54,72.2,4.62,73.5v4.58h5.89
		C13.96,74.89,15.94,70.19,15.94,64.62z"/>
	<path class="st2" d="M-1.6,82.52c4.95,0,9.08-1.65,12.11-4.44L4.62,73.5c-1.65,1.1-3.74,1.77-6.21,1.77
		c-4.78,0-8.82-3.22-10.27-7.57h-6.08v4.72C-14.94,78.4-8.76,82.52-1.6,82.52z"/>
	<path class="st3" d="M-11.87,67.7c-0.38-1.1-0.58-2.27-0.58-3.5c0-1.22,0.21-2.4,0.58-3.5v-4.72h-6.08
		c-1.25,2.47-1.97,5.25-1.97,8.21c0,2.96,0.72,5.74,1.97,8.21L-11.87,67.7z"/>
	<path class="st4" d="M-1.6,53.14c2.7,0,5.11,0.93,7.02,2.75l5.22-5.22c-3.16-2.96-7.3-4.78-12.24-4.78
		c-7.16,0-13.34,4.12-16.35,10.11l6.08,4.72C-10.42,56.36-6.38,53.14-1.6,53.14z"/>
</g>
</svg>
